<?xml version="1.0" encoding="utf-8"?>
<!-- Svg Vector Icons : http://www.onlinewebfonts.com/icon -->
<!DOCTYPE svg PUBLIC "-//W3C//DTD SVG 1.1//EN" "http://www.w3.org/Graphics/SVG/1.1/DTD/svg11.dtd">
<svg version="1.1" xmlns="http://www.w3.org/2000/svg" xmlns:xlink="http://www.w3.org/1999/xlink" x="0px" y="0px" viewBox="0 0 1000 1000" enable-background="new 0 0 1000 1000" xml:space="preserve">
<g><path d="M927.4,87.3H72.6C38,87.3,10,115.4,10,149.8v700.3c0,34.6,28,62.6,62.6,62.6h854.8c34.6,0,62.6-28,62.6-62.6V149.8C990,115.4,962,87.3,927.4,87.3z M687.8,143.9c0-10.3,8.5-18.7,18.8-18.7h57.7c5.6,0,9.7,2,12.8,5.1c0.2,0.1,0.3,0.2,0.5,0.4c0.1,0.2,0.3,0.4,0.4,0.6c3,3,5.1,7.2,5.1,12.7v47.3c0,10.2-8.6,18.7-18.8,18.7h-57.7c-10.3,0-18.8-8.5-18.8-18.7V143.9z M937.8,266.6v446.1H62.1V266.6H937.8z M527.8,143.9c0-10.3,8.5-18.7,18.7-18.7h57.7c5.5,0,9.7,2,12.8,5.1c0.1,0.1,0.3,0.2,0.5,0.4c0.1,0.2,0.3,0.4,0.5,0.6c3,3,5,7.2,5,12.7v47.3c0,10.2-8.5,18.7-18.7,18.7h-57.7c-10.2,0-18.7-8.5-18.7-18.7V143.9z M369.3,143.9c0-10.3,8.5-18.7,18.7-18.7h57.7c5.5,0,9.7,2,12.7,5.1c0.1,0.1,0.3,0.2,0.5,0.4c0.2,0.2,0.3,0.4,0.5,0.6c3,3,5,7.2,5,12.7v47.3c0,10.2-8.5,18.7-18.7,18.7h-57.7c-10.3,0-18.7-8.5-18.7-18.7V143.9z M212.4,143.9c0-10.3,8.5-18.7,18.8-18.7h57.7c5.5,0,9.7,2,12.7,5.1c0.2,0.1,0.3,0.2,0.5,0.4c0.2,0.2,0.4,0.4,0.5,0.6c3,3,5,7.2,5,12.7v47.3c0,10.2-8.5,18.7-18.8,18.7h-57.7c-10.3,0-18.8-8.5-18.8-18.7L212.4,143.9L212.4,143.9z M58.6,143.9c0-10.3,8.5-18.7,18.7-18.7H135c5.5,0,9.7,2,12.8,5.1c0.2,0.1,0.3,0.2,0.5,0.4c0.1,0.2,0.3,0.4,0.5,0.6c3,3,5.1,7.2,5.1,12.7v47.3c0,10.2-8.6,18.7-18.8,18.7H77.3c-10.2,0-18.7-8.5-18.7-18.7V143.9z M153.8,850.1c0,5.5-2,9.7-5.1,12.8c-0.1,0.2-0.3,0.4-0.5,0.5c-0.2,0.1-0.3,0.4-0.5,0.5c-3,3-7.2,5.1-12.8,5.1H77.3c-10.2,0-18.7-8.6-18.7-18.8v-47.3c0-10.3,8.5-18.7,18.7-18.7H135c10.2,0,18.8,8.5,18.8,18.7V850.1z M307.6,850.1c0,5.5-2,9.7-5,12.8c-0.1,0.2-0.3,0.4-0.5,0.5c-0.1,0.1-0.3,0.4-0.5,0.5c-3,3-7.2,5.1-12.7,5.1h-57.7c-10.3,0-18.8-8.6-18.8-18.8v-47.3c0-10.3,8.5-18.7,18.8-18.7h57.7c10.2,0,18.8,8.5,18.8,18.7L307.6,850.1L307.6,850.1z M464.5,850.1c0,5.5-2,9.7-5,12.8c-0.1,0.2-0.3,0.4-0.5,0.5c-0.2,0.1-0.4,0.4-0.5,0.5c-3,3-7.2,5.1-12.7,5.1h-57.7c-10.3,0-18.7-8.6-18.7-18.8v-47.3c0-10.3,8.5-18.7,18.7-18.7h57.7c10.2,0,18.7,8.5,18.7,18.7V850.1z M623,850.1c0,5.5-2,9.7-5,12.8c-0.1,0.2-0.4,0.4-0.5,0.5c-0.2,0.1-0.3,0.4-0.5,0.5c-3,3-7.3,5.1-12.8,5.1h-57.7c-10.2,0-18.7-8.6-18.7-18.8v-47.3c0-10.3,8.5-18.7,18.7-18.7h57.7c10.2,0,18.7,8.5,18.7,18.7V850.1z M783.1,850.1c0,5.5-2.1,9.7-5.1,12.8c-0.1,0.2-0.3,0.4-0.4,0.5c-0.2,0.1-0.3,0.4-0.5,0.5c-3,3-7.2,5.1-12.8,5.1h-57.7c-10.3,0-18.8-8.6-18.8-18.8v-47.3c0-10.3,8.5-18.7,18.8-18.7h57.7c10.2,0,18.8,8.5,18.8,18.7V850.1z M940,850.1c0,5.5-2,9.7-5,12.8c-0.2,0.2-0.4,0.4-0.5,0.5c-0.2,0.1-0.4,0.4-0.6,0.5c-2.9,3-7.2,5.1-12.7,5.1h-57.7c-10.3,0-18.7-8.6-18.7-18.8v-47.3c0-10.3,8.4-18.7,18.7-18.7h57.7c10.2,0,18.7,8.5,18.7,18.7V850.1z M940,191.2c0,10.2-8.5,18.7-18.7,18.7h-57.7c-10.3,0-18.7-8.5-18.7-18.7v-47.3c0-10.3,8.4-18.7,18.7-18.7h57.7c5.5,0,9.7,2,12.7,5.1c0.2,0.1,0.4,0.2,0.6,0.4c0.1,0.2,0.3,0.4,0.5,0.6c3,3,5,7.2,5,12.7V191.2z"/></g>
</svg>